<svg width="28" height="25" viewBox="0 0 28 25" fill="none" xmlns="http://www.w3.org/2000/svg">
<g filter="url(#filter0_d_18_11564)">
<path d="M9.66666 15.0833H6.91666C6.74999 15.0833 6.66666 15 6.58333 14.9167C6.49999 14.8333 6.41666 14.6667 6.49999 14.5C6.99999 13.0833 8.24999 12.25 9.66666 12.25C11.4167 12.25 12.8333 10.75 12.8333 9.00001C12.8333 7.25001 11.4167 5.58334 9.66666 5.58334C7.91666 5.58334 6.49999 7.08334 6.49999 8.91668C6.49999 9.75001 6.83333 10.5833 7.33333 11.1667C6.24999 11.75 5.41666 12.6667 4.91666 13.9167C4.74999 14.5 4.83333 15.25 5.24999 15.8333C5.66666 16.4167 6.24999 16.75 6.91666 16.75H9.66666C10.1667 16.75 10.5 16.4167 10.5 15.9167C10.5 15.4167 10.1667 15.0833 9.66666 15.0833ZM8.16666 8.91668C8.16666 8.00001 8.83333 7.33334 9.66666 7.33334C10.5 7.33334 11.1667 8.08334 11.1667 8.91668C11.1667 9.83334 10.5 10.5 9.66666 10.5C8.83333 10.5 8.16666 9.75001 8.16666 8.91668Z" fill="#101828"/>
<path d="M23.0833 13.4167C22.5 11.8333 21.3333 10.6667 20 10C20.75 9.33335 21.1666 8.33335 21.1666 7.16668C21.1666 5.00002 19.5 3.25002 17.5 3.25002C15.5 3.25002 13.8333 5.00002 13.8333 7.16668C13.8333 8.25002 14.25 9.25002 15 10C13.6666 10.6667 12.5 11.8333 11.9166 13.4167C11.5 14.1667 11.6666 15 12.0833 15.6667C12.5 16.3333 13.25 16.6667 14 16.6667H20.9166C21.6666 16.6667 22.4166 16.25 22.8333 15.6667C23.3333 15 23.4166 14.1667 23.0833 13.4167ZM15.4166 7.25001C15.4166 6.00001 16.3333 5.00002 17.4166 5.00002C18.5 5.00002 19.4166 6.00001 19.4166 7.25001C19.4166 8.50001 18.5 9.50002 17.4166 9.50002C16.3333 9.50002 15.4166 8.41668 15.4166 7.25001ZM21.4166 14.75C21.3333 14.8333 21.1666 15.0833 20.9166 15.0833H14C13.6666 15.0833 13.5 14.8333 13.5 14.75C13.4166 14.6667 13.25 14.3333 13.4166 14C14.0833 12.25 15.75 11.0833 17.5 11.0833C19.25 11.0833 20.9166 12.25 21.5833 14C21.6666 14.3333 21.5 14.6667 21.4166 14.75Z" fill="#101828"/>
</g>
<defs>
<filter id="filter0_d_18_11564" x="0" y="0" width="28" height="28" filterUnits="userSpaceOnUse" color-interpolation-filters="sRGB">
<feFlood flood-opacity="0" result="BackgroundImageFix"/>
<feColorMatrix in="SourceAlpha" type="matrix" values="0 0 0 0 0 0 0 0 0 0 0 0 0 0 0 0 0 0 127 0" result="hardAlpha"/>
<feOffset dy="4"/>
<feGaussianBlur stdDeviation="2"/>
<feComposite in2="hardAlpha" operator="out"/>
<feColorMatrix type="matrix" values="0 0 0 0 0 0 0 0 0 0 0 0 0 0 0 0 0 0 0.25 0"/>
<feBlend mode="normal" in2="BackgroundImageFix" result="effect1_dropShadow_18_11564"/>
<feBlend mode="normal" in="SourceGraphic" in2="effect1_dropShadow_18_11564" result="shape"/>
</filter>
</defs>
</svg>
